<?xml version="1.0" encoding="UTF-8"?>
<svg id="Layer_2" data-name="Layer 2" xmlns="http://www.w3.org/2000/svg" viewBox="0 0 300 300">
  <defs>
    <style>
      .cls-1 {
        fill: none;
      }

      .cls-2 {
        fill: #231f20;
      }
    </style>
  </defs>
  <g id="Layer_1-2" data-name="Layer 1">
    <g>
      <g>
        <path class="cls-2" d="M124.25,185.97c-1.59,11.09,14.33,11.92,17.7,21.02,14.72-5.96,28.42-8.79,28.42-7.9,0,.43-13.87,3.23-27.93,9.91,.2,1.68-.11,3.49-1.09,5.49-6.86,13.96-35.37,15.57-23.81,6.12,5.27-4.31,11.88-8.03,18.63-11.12-3.85-8.3-25.16-7.93-20.19-30.13,.08-.29,.17-.58,.26-.85-89.83,47.84-54.28-3.58-106.18,10.34-9.81,2.63-9.88-5.73-1.11-8.08,38.05-10.2,21.14,43.42,110.57-6.99,1.2-.92,2.52-1.4,3.73-1.43,3.75-.07,6.39,4.28,.99,13.64Zm-1.19,35.99c-5.5,5.5,8.48,1.83,12.87-7.1,.52-1.05,.76-2.01,.78-2.92-4.98,2.79-9.74,6.1-13.65,10.02Z"/>
        <path class="cls-2" d="M173.87,188.24c2.8,14.9,7.86,25.2,15.1,25.2,8.65,0,24.37-21.83,37.79-21.83s13.54,27.8,30.45,27.8c19.73,0,40.25-25.89,40.25-20.21s-21.41,25.73-40.13,25.73c-22.55,0-21.74-26.75-30.58-26.75-12,0-25.72,22.32-37.79,22.32-37.01,0-34.41-147.06,11.28-147.06s6.37,101.36-26.37,114.8Zm-.56-3.19c28.48-13.54,63.13-106.13,26.69-106.13-24.6,0-33,66.66-26.69,106.13Z"/>
      </g>
      <rect class="cls-1" width="300" height="300"/>
    </g>
  </g>
</svg>