
<svg id="Layer_2" data-name="Layer 2" xmlns="http://www.w3.org/2000/svg" viewBox="0 0 244.76 259.21">
  
  <g id="Layer_1-2" data-name="Layer 1">
    <path className="fill-[#eb008c]" d="m244.76,82.11v-5.25c-.8-.49-1.6-.99-2.4-1.48-1.15-.71-2.24-1.55-3.46-2.1-1.88-.86-3.57-2.09-5.56-2.73-.49-.16-.9-.64-1.39-.74-1.26-.24-2.34-.91-3.51-1.37-1.62-.64-3.27-1.19-4.9-1.79-.91-.34-1.88-.53-2.82-.8-.59-.17-1.16-.37-1.75-.52-.96-.24-1.98-.32-2.91-.59-1.16-.34-2.35-.38-3.5-.69-.75-.2-1.61.07-2.37-.3-1.55.14-3.08-.19-4.61-.25-.66-.02-1.32-.1-2.01.2-.47.21-1.12,0-1.69.05-.54.04-1.06.2-1.6.24-.58.05-1.19-.1-1.73.27-1-.14-1.85.42-2.77.62-1.17.25-2.39.51-3.42,1.21-1.57.21-2.86,1.12-4.27,1.72-2.56,1.09-4.89,2.61-7.21,4.1-1.63,1.05-3.28,2.12-4.78,3.38-.83.7-1.7,1.39-2.58,2.02-.99.7-1.88,1.51-2.89,2.18-1.09.73-2.01,1.68-3.01,2.52-1.3,1.09-2.61,2.19-3.87,3.33-1.46,1.32-2.9,2.64-4.43,3.89-.54.44-1,.98-1.49,1.48-.42.43-1.19.52-1.28,1.28-.71.2-1.03.88-1.56,1.3-.52.41-1.04.82-1.69,1.32-.06-.36-.09-.55-.12-.72.74-.95,1.42-1.91,2.19-2.79.75-.85,1.39-1.78,2.03-2.71,1.29-1.87,2.54-3.78,3.92-5.58.94-1.23,1.69-2.61,2.84-3.69.31-.29.41-.79.67-1.15.28-.38.68-.67.95-1.06.26-.38.7-.52.99-.87,1.21-1.47,2.45-2.9,3.69-4.35q-.78-.78-2.14-1.12c-.45-.59-.97-.16-1.34.04-.55.31-1,.85-1.17,1.46-.41,1.43-.82,2.88-.81,4.45-.31.3-.71.59-.99.97-1.08,1.47-2.04,3.03-3.19,4.44-.87,1.07-1.51,2.29-2.37,3.35-.26.33-.57.63-.78.99-.89,1.5-1.91,2.91-3.03,4.25-.73.87-1.44,1.76-2.13,2.66-.4.52-.69,1.14-1.13,1.62-1.21,1.35-2.46,2.66-3.7,3.98-1.42,1.51-2.98,2.83-4.89,3.77-.96-1.09-1.74-2.4-3.27-3.14h-1.05c-.29-.15-.51-.26-.7-.36-.04-.14-.07-.26-.12-.37-1.15-2.23-2.38-4.43-2.97-6.9-.11-.48-.29-.94-.35-1.42-.06-.52.17-1.16-.06-1.54-.31-.53-.18-1.01-.19-1.5-.01-.4.21-.8.23-1.2.08-1.29.77-2.4,1.07-3.63.99-1.25,1.87-2.59,2.95-3.77,1.26-1.36,2.81-2.35,4.19-3.57.43-.38.85-.84,1.35-1.13,1.56-.92,2.83-2.21,4.27-3.28.8-.59,1.46-1.38,2.14-2.12.67-.71,1.31-1.47,1.95-2.21.08-.09.12-.21.19-.31.52-.77.64-1.62.49-2.52-.68-.76-1.52-1.29-2.49-1.75-.06.31-.05.58-.16.78-.45.86-.77,1.78-1.11,2.69-.48,1.32-1.22,2.58-.88,4.07-1.2,1.01-2.32,2.06-3.56,2.94-.49.35-.85.86-1.36,1.12-1.62.84-2.9,2.14-4.26,3.3-1.3,1.11-2.38,2.49-3.55,3.76-.08.09-.12.21-.18.32-.28.5-.5,1.05-.86,1.47-.44.51-.41,1.15-.61,1.72-.28.81-.57,1.66-.59,2.5-.03,1.4-.27,2.84.24,4.22.24.66.29,1.36.47,2.03.22.84.61,1.6.86,2.41.26.85.68,1.64,1.13,2.42.21.37.6.73.36,1.29h-2.09c-.81.8-1.55,1.54-2.29,2.27-.05.5.18,1.07-.43,1.45-.57-.09-1.19-.22-1.81-.27-.65-.05-1.31-.01-1.97,0-.61,0-1.17.57-1.79.17-.11-.29-.24-.55-.3-.82-.07-.29-.05-.59-.1-.88-.13-.69-.37-1.36-.41-2.05-.05-.76-.24-1.5-.34-2.24-.14-1.11-.49-2.19-.47-3.33,0-.13.06-.33,0-.38-.42-.35-.19-.81-.26-1.21-.07-.45-.17-.89-.26-1.33-.08-.4-.22-.8-.25-1.2-.05-.8-.04-1.59-.24-2.39-.19-.76-.02-1.58-.27-2.38-.21-.67.02-1.39-.24-2.13-.24-.68-.08-1.48-.27-2.24-.19-.76-.06-1.58-.26-2.38-.19-.76-.18-1.59-.25-2.38-.12-1.39-.22-2.76-.56-4.11-.11-.45.09-1.02-.12-1.39-.25-.44-.16-.85-.14-1.25.02-.49-.21-.89-.27-1.34-.13-.92-.18-1.85-.28-2.77-.02-.16-.07-.32-.11-.48-.14-.6-.31-1.19-.4-1.8-.12-.79-.1-1.61-.3-2.37-.13-.5-.09-1.03-.26-1.46-.46-1.19-.71-2.43-.98-3.65-.53-2.31-1.31-4.53-2.02-6.78-.39-1.24-1.03-2.38-1.42-3.61-.35-1.13-.8-2.23-1.37-3.23-.48-.85-.91-1.73-1.41-2.57-.15-.25-.32-.48-.46-.73-.68-1.18-1.54-2.25-2.25-3.4-.87-1.4-1.88-2.68-2.98-3.86-2.36-2.54-4.83-4.99-7.46-7.26-.07-.06-.12-.14-.19-.18-1.01-.66-1.94-1.43-2.92-2.13-1.11-.8-2.25-1.56-3.35-2.36-1.39-1.02-2.93-1.82-4.36-2.77-2.28-1.52-4.66-2.86-7.08-4.15-1.61-.86-3.22-1.71-4.86-2.52-1.49-.73-3-1.41-4.51-2.11-1.32-.61-2.61-1.32-3.98-1.79-.67-.23-1.23-.64-1.89-.82-.71-.2-1.38-.43-2.05-.77-.53-.27-1.05-.63-1.74-.59-.4.02-.83-.29-1.22-.49-.65-.34-1.32-.61-2.04-.78-.75-.18-1.45-.53-2.15-.82-.53-.22-1.23-.15-1.58-.75h-1.57c-.16.17-.31.38-.5.51-.16.11-.41.08-.58.18-1.19.75-2.26,1.64-3.22,2.68-1.13,1.21-1.11,2.79-1.47,4.25.29.31.24.69.27,1.07.03.4.14.79.2,1.11-.48.61-.94,1.16-1.37,1.73-.26.35-.77,2.02-.66,2.34.38,1.19.56,2.43,1.23,3.56.55.92.89,2.01,1.09,3.07.27,1.45-.19,2.78-1,4.03-1.17,1.78-2.36,3.5-2.99,5.84-.35,1.31-.2,2.77.58,3.81.45.61.93,1.22,1.49,1.74,1.3,1.21,1.65,2.81,1.95,4.44.03.16-.03.33-.06.49-.05.24-.22.5-.17.7.13.55-.24.97-.31,1.47-.07.51-.3,1.01-.51,1.49-.42,1-.88,2-1.33,2.99-.46,1.01-.57,2.02-.48,3.07.03.39.2.81.42,1.13.89,1.26,1.28,2.74,1.62,4.18.31,1.31.25,2.71.34,3.89-.19.38-.3.6-.42.81-1.13,2.15-1.13,2.79-.67,5.28.16.83.35,1.65.27,2.51-.05.5.08,1.02-.27,1.46.05,1.35-.47,2.6-.83,3.86-.17.61-.24,1.08.03,1.64.17.36.23.78.35,1.19.81.89,1.78,1.58,2.85,2.21,1.24.73,2.19,1.83,2.59,3.29.1.35.3.66.48,1.07.09.66.24,1.4.28,2.15.05.83.23,1.61.94,2.1.76.52,1.37,1.23,2.17,1.7.93.54,1.76,1.24,2.66,1.83.89.58,1.84,1.07,2.71,1.69,1.7,1.22,3.61,2.08,5.38,3.18.42.26.85.47,1.26.77.37.28.9.35,1.33.56.47.23.91.54,1.38.78,1.91.97,3.83,1.94,5.76,2.88.32.16.61.27.54.69-.63.37-1.13-.22-1.87-.16-.17-.22-.41-.52-.54-.68-1.19-.31-2.32-.19-3.23-.89-1.78-.43-3.56-.83-5.25-1.57-.07-.03-.17,0-.26,0-.89.03-1.7-.35-2.53-.55-.76-.19-1.5-.4-2.28-.53-.66-.11-1.31-.26-1.99-.24-.41-.58-1.11-.07-1.65-.48-.42-.32-1.12.07-1.73-.22-.5-.23-1.19-.05-1.8-.09-.83-.05-1.68.17-2.49-.19-.55.41-1.18.18-1.76.17-.61,0-1.15.22-1.73.27-1.74.15-3.34.75-4.93,1.41-1.18.49-2.13,1.36-3.25,1.96-.51.27-.97.62-1.46.92-1.19.73-2.39,1.45-3.51,2.29-.97.73-2.04,1.35-2.87,2.26-.63.7-1.25,1.4-1.85,2.12-.83.99-1.01,2.72-.37,3.73.69,1.1,1.63,2.02,2.62,2.82.39.31.81.62,1.15.98.4.43.53,1.01.58,1.59.05.54-.2.97-.55,1.35-1.18,1.28-2.58,2.3-4.01,3.28-1.48,1.01-2.94,2.07-4.29,3.24-1.31,1.13-2.52,2.39-3.21,4.17q0,1.1.59,2.46c.2.12.39.2.55.32.7.51,1.39,1.02,2.26,1.2.92.2,1.66.83,2.59,1.04.48.11.89.44,1.13.95-.49.66-.95,1.29-1.76,1.62-.49.2-.86.67-1.29.99-.88.65-1.75,1.31-2.59,2-.38.31-.82.61-1.14.98-.29.34-.58.7-.87,1.04-.55.64-.79,1.44-1.29,2.21,0,.12,0,.33,0,.55.01.27-.22.53-.21.68.02.7-.12,1.39.16,2.14.36.99.91,1.85,1.48,2.66,1.39,1.99,2.97,3.84,4.41,5.79.65.88.96,1.83.57,3.03-.26.81-.75,1.52-.94,2.38-.18.8-.86,1.46-1.25,2.23-1.05,2.08-2.5,3.85-4.08,5.51-1.08,1.14-2.39,2.04-3.55,3.1-1.1,1-2.51,1.55-3.5,2.66-1.63.65-3.07,1.67-4.6,2.5-1.32.71-2.71,1.29-3.97,2.13-1.33.88-2.8,1.58-3.74,2.96-.31.46-.64.91-.96,1.36v2.1c.51.23.55.8.74,1.19.51,1.04,1.16,1.93,1.99,2.71.93.88,2.55,1.05,3.56.43.94-.58,1.84-1.19,2.57-2.03.88-1,1.83-1.94,2.67-2.97.68-.83,1.25-1.75,1.87-2.63,1.11-1.57,2.27-3.11,3.53-4.57,1.31-1.51,2.94-2.63,4.62-3.69.9-.57,1.79-1.15,2.83-1.4.84-.21,1.7-.81,2.55-.07.11.35.3.69.32,1.05.04.53.31.92.49,1.38.19.49.65.67.85,1.09.08.18.82.7,1.09.87.78.48,1.66.64,2.52.89,1.08.31,2.11.81,3.16,1.22-.03.04-.07.08-.1.12.3.35.6.69.94,1.09,0,.94-.02,1.94,0,2.95.02.97-.63,1.81-.54,2.62.25.42.37.75.59.98.22.24.53.38.81.57.71.48,1.43.77,2.32.42,1.21-.47,2.46-.82,3.65-1.32,1.45-.61,2.91-.42,4.32-.05.84.22,1.57.83,2.36,1.26.32.18.64.5.96.5,1.24,0,2.45.52,3.69.28.92-.18,1.85-.22,2.71-.74.61-.36,1.16-.8,1.67-1.25.6-.52,1.13-1.16,1.56-1.83.61-.95,1.32-1.81,1.99-2.71.7-.95,1.54-1.79,2.2-2.77,1.03-1.53,2.21-2.94,3.36-4.38.45-.56,1.03-1.05,1.37-1.67.67-1.24,1.74-2.14,2.54-3.27.54-.76,1.29-1.37,1.83-2.14,1.05-1.49,2.17-2.91,3.44-4.21.14-.15.22-.35.35-.51.28-.33.58-.63.85-.96.29-.35.55-.73.85-1.09.03-.04.16,0,.29,0,.03.09.13.23.09.31-1.72,4.58-3.19,9.25-5.24,13.96,0,.36.05.98-.02,1.58-.05.47.17.83.4,1.15.3.42.68.82,1.12,1.07.59.34,1.26.54,1.89.81.5.21.94-.17,1.49-.07.64.12,2.86-1.07,3.49-1.62,1.83-1.6,3.37-3.45,4.46-5.63.61-1.21,1.25-2.4,2.05-3.47,1.13-1.52,2.48-2.89,3.57-4.44,1.04-1.47,2.16-2.88,3.31-4.25,1.36-1.62,2.66-3.3,4.04-4.9.58-.67,1.19-1.33,1.73-2.04.58-.77,1.09-1.6,1.81-2.26.12-.11.33-.13.65-.26-.47,1.11-.78,2.08-1.29,2.93-.33.55-.47,1.12-.65,1.71-.18.57-.57,1.08-.76,1.65-.39,1.2-.72,2.41-1.06,3.63-.22.79-.42,1.59-.57,2.4-.11.58-.05,1.2-.24,1.73-.48,1.31-.38,2.7-.72,4.02-.19.74-.06,1.56-.03,2.35.03.81-.33,1.56-.29,2.38.08,1.75,0,3.5.03,5.25.03,1.76-.1,3.51.22,5.27.25,1.38-.13,2.81.27,4.22.22.77-.14,1.63.17,2.42.31.79-.12,1.7.38,2.47-.19,1.34.28,2.63.26,3.96-.02,1.33.45,2.62.26,3.96.37.63.1,1.36.31,1.97.16.46.26.9.2,1.35-.07.54.26.97.28,1.47.03.76.03,1.5.23,2.26.19.76.14,1.58.25,2.38.17,1.2.35,2.39.54,3.58.22,1.38.23,2.81.29,4.21.04,1.09,0,2.19.01,3.28,0,.33-.14.71.24.95-.12.69.52,1,.75,1.52.34.76.91,1.17,1.79,1.32.76.13,1.49.5,2.01,1.16.08.11.29.11.37.14.4.88.89,1.64.99,2.55.04.33.08.66.14.99.07.36.18.71.26,1.07.11.48.21.97.34,1.56.12.12.31.38.56.55.49.33.94.89,1.64.31.15-.13.5-.02.79-.02,1.37-1.75,2.45-3.76,4.39-4.98h1.41c.64.5,1.31,1.06,2.02,1.57.76.55,1.62.91,2.55.76.54-.08,1.05-.41,1.54-.68.59-.33,1.13-.74,1.75-1.14.29.53.54,1,.85,1.58-.18,2.32.23,4.78-.26,7.23-.2.97-.45,1.93-.62,2.9-.21,1.22-.84,2.37-1.14,3.58-.26,1.03-.83,1.94-.98,3.02-.09.67-.41,1.31-.63,1.96-.43,1.27-.79,2.57-1.07,3.88-.18.83-.39,1.67-.55,2.45.12.18.2.32.29.46-.91,1.01.46,1.67.22,2.51.45.32.83.58,1.24.87,1.46.18,2.73-.61,4.11-1.05.33-.25.59-.62.93-.88,1.15-.92,1.37-2.32,1.81-3.58.19-.55,0-1.22.04-1.82.04-.62.24-1.24.24-1.86,0-1.32.02-2.63-.2-3.97-.22-1.36-.08-2.79-.04-4.19.04-1.36-.12-2.72.21-4.1.22-.93-.05-1.95.28-2.9.11-.31-.02-.7.03-1.04.05-.36.15-.72.26-1.07.32-1.01.49-2.07.75-3.09.23-.91.52-1.8.77-2.7.24-.87.45-1.74.85-2.54.42-.84.6-1.76,1.03-2.59.62-1.18,1.18-2.4,1.78-3.59.13-.26.28-.51.46-.72,1-1.17,2.44-1.47,3.83-1.82.71-.18,1.44-.31,2.16-.48,1.16-.26,2.31-.57,3.47-.81.84-.17,1.54-.58,2.02-1.11.79-.88,1.46-1.88,2.05-2.93.52-.91.65-1.92,1.01-2.86.37-.98.32-2.04.51-3.06.12-.65-.09-1.36.28-1.99-.17-1.34.45-2.62.25-3.93.23-.24.45-.45.66-.66.58-.14,1.03.16,1.51.42.71.39,1.38.8,2.22.99.96.21,1.7.15,2.42-.49.31-.27.67-.5,1.03-.76.01-.11,0-.24.04-.35.22-.57.46-1.12.67-1.69.22-.57.34-1.16.6-1.72.25-.55-.21-1.28.29-1.84-.12-.82.25-1.59.23-2.38-.02-.82.24-1.59.29-2.38.05-.84-.09-1.69.24-2.52.15-.38,0-.87.04-1.3.04-.41.26-.81.23-1.2-.05-.73.45-1.22.67-1.83.26-.73.83-1.1,1.53-1.32.11-.03.2-.15.37-.29.44.22,1.04-.24,1.53.28.1.11.48.1.63,0,.55-.38,1.15-.19,1.66-.25.9-.55,1.83-.96,2.27-1.94.23-.52.53-1,.73-1.53.24-.65.46-1.31.59-1.98.21-1.06.23-2.14.51-3.2.15-.57,0-1.22.04-1.83.04-.58.2-1.15.24-1.73.04-.52-.02-1.05.01-1.57.09-1.49-.2-3,.23-4.49.13-.48.23-1.12-.23-1.59.16-.74-.17-1.42-.28-2.12-.13-.8-.3-1.62-.62-2.36-1.16-2.71-2.76-5.17-4.74-7.34-1.48-1.62-3.18-3.05-4.78-4.56-.09-.08-.2-.14-.3-.21-.87-.64-1.75-1.27-2.61-1.93-.16-.13-.23-.38-.49-.81,1.57.51,2.84,1.01,4.17,1.33,1.16.28,2.15.97,3.3,1.23.39.09.78.24,1.16.37.57.2,1.16.36,1.71.61.82.37,1.73.46,2.58.73,1.12.36,2.24.76,3.46.89.56.06,1.25,0,1.71.26.59.33,1.21,0,1.72.3.58.35,1.18.06,1.69.18.31-.18.58-.3.8-.48.63-.51,1.2-1.09,1.85-1.56.73-.53,1.4-1.15,2.26-1.51.92-.39,1.9-.62,2.82-.3.86.3,1.68.49,2.53.42.18-.1.32-.18.46-.25,1.06-.52,1.75-1,2.21-1.86.75-1.37,1.51-2.74,2.51-3.94.98-1.18,1.96-2.38,3.36-3.13.18-.1.36-.21.51-.35.79-.75,1.46-1.58,1.91-2.62.63-1.46,1.43-2.85,2.73-3.85.36-.28.78-.51,1.09-.84.98-1.07,2.23-1.72,3.51-2.3.89-.4,1.74-.88,2.31-1.69.71-1,1.43-1.99,1.9-3.14.34-.82.52-1.75,1.26-2.36-.04-.7.5-1.11.84-1.61.36-.52.8-.98,1.19-1.48.13-.16.22-.35.35-.51.4-.49.76-1.01,1.37-1.29.93-.42,1.81-1.03,2.85-1.02,1.84.01,3.29-.79,4.33-2.19,1.22-1.63,2.1-3.45,2.77-5.41.46-1.36.93-2.76,1.69-4.02.5-.83,1.14-1.51,1.91-2.02,1.19-.78,2.48-1.4,3.7-2.13,1.09-.64,2.31-1.17,2.7-2.56.83-.77.76-1.87,1.04-2.87.75-.66,1.54-1.32,2.28-2.03.68-.65,1.39-2.12,1.9-3.14.28-.56.19-1.28.74-1.72Z"/>
  </g>
</svg>