
<svg fill="#ffffff" id="Layer_2" data-name="Layer 2" xmlns="http://www.w3.org/2000/svg" viewBox="0 0 1090.17 828.55">
  
  <g id="Layer_1-2" data-name="Layer 1">
    <g>
      <g>
        <path class="cls-1" d="M700.69,800.47c-.67-.8-1.61-1.46-2.8-1.97-1.19-.51-2.38-.74-3.56-.69-.7,.03-1.4,.15-2.1,.35-.7,.21-1.32,.5-1.88,.9-.56,.39-1.01,.89-1.35,1.5-.34,.61-.5,1.33-.46,2.16,.03,.77,.22,1.42,.56,1.95,.34,.53,.8,.97,1.38,1.33,.58,.36,1.27,.67,2.08,.92,.81,.25,1.7,.5,2.67,.75,1.1,.31,2.25,.66,3.43,1.06,1.19,.4,2.28,.95,3.29,1.64,1.01,.69,1.84,1.59,2.51,2.68s1.04,2.47,1.11,4.13c.08,1.82-.19,3.43-.81,4.81-.61,1.39-1.46,2.55-2.54,3.49-1.08,.94-2.36,1.67-3.85,2.18-1.48,.51-3.06,.8-4.72,.87-2.21,.09-4.38-.22-6.53-.95s-3.92-1.86-5.33-3.4l4.15-4.21c.88,1.12,2.03,1.98,3.45,2.59,1.42,.61,2.8,.89,4.14,.83,.7-.03,1.42-.15,2.15-.36,.73-.21,1.38-.53,1.95-.97,.57-.44,1.03-.98,1.37-1.62,.34-.64,.49-1.42,.45-2.35-.04-.9-.28-1.63-.72-2.2s-1.02-1.06-1.74-1.46c-.72-.4-1.57-.74-2.54-1.02-.97-.28-1.99-.57-3.06-.88-1.04-.28-2.08-.62-3.12-1.02s-1.99-.96-2.83-1.66c-.85-.7-1.55-1.58-2.1-2.62s-.87-2.37-.94-3.97c-.07-1.73,.22-3.23,.89-4.51,.67-1.28,1.57-2.35,2.7-3.21,1.13-.86,2.43-1.53,3.9-1.99,1.47-.46,2.97-.73,4.51-.79,1.73-.07,3.49,.16,5.29,.69,1.8,.53,3.38,1.38,4.74,2.54l-3.75,4.48Z"/>
        <path class="cls-1" d="M762.54,806.57c.37,2.01,.35,3.9-.04,5.64s-1.09,3.3-2.08,4.65c-.99,1.35-2.25,2.48-3.77,3.4-1.53,.91-3.25,1.54-5.17,1.89-1.92,.35-3.76,.37-5.5,.05-1.75-.32-3.33-.93-4.75-1.84-1.42-.91-2.61-2.12-3.59-3.62-.97-1.5-1.64-3.25-2.01-5.27l-3.86-21.16,5.95-1.08,3.81,20.92c.18,.98,.48,1.92,.91,2.83,.43,.92,1,1.7,1.72,2.35,.72,.65,1.6,1.12,2.65,1.42,1.05,.3,2.28,.32,3.69,.06,1.42-.26,2.56-.71,3.44-1.36,.87-.65,1.53-1.4,1.98-2.26,.45-.86,.71-1.79,.78-2.8,.08-1.01,.03-2-.15-2.97l-3.81-20.92,5.95-1.08,3.85,21.16Z"/>
        <path class="cls-1" d="M805.19,779.34c-.87-.59-1.95-.96-3.23-1.13-1.29-.16-2.49-.06-3.61,.31-.67,.22-1.31,.53-1.92,.92-.61,.39-1.13,.85-1.57,1.38-.43,.53-.73,1.13-.89,1.81-.16,.68-.11,1.41,.15,2.2,.24,.73,.6,1.3,1.07,1.72,.47,.42,1.04,.72,1.69,.91,.65,.19,1.4,.29,2.25,.32,.85,.02,1.78,.02,2.78,0,1.14,0,2.34,.02,3.59,.07,1.25,.06,2.45,.28,3.61,.67,1.16,.39,2.21,1.02,3.15,1.89,.94,.87,1.68,2.09,2.2,3.67,.57,1.73,.75,3.35,.54,4.85-.21,1.5-.71,2.86-1.49,4.06-.78,1.2-1.82,2.25-3.1,3.15-1.29,.9-2.72,1.61-4.3,2.13-2.1,.69-4.28,.99-6.54,.88-2.26-.11-4.28-.71-6.06-1.81l2.83-5.19c1.15,.83,2.49,1.35,4.03,1.55,1.53,.2,2.94,.09,4.21-.33,.67-.22,1.32-.53,1.97-.93,.64-.4,1.18-.89,1.61-1.47,.43-.58,.72-1.23,.88-1.93,.15-.71,.08-1.5-.21-2.38-.28-.85-.71-1.49-1.29-1.92-.58-.43-1.27-.74-2.08-.93-.8-.19-1.71-.28-2.72-.29-1.01,0-2.07,0-3.19,0-1.07,.02-2.17-.02-3.28-.13-1.11-.1-2.17-.38-3.18-.82-1.01-.44-1.92-1.09-2.74-1.95-.82-.86-1.49-2.04-1.99-3.56-.54-1.64-.67-3.17-.38-4.58s.86-2.69,1.71-3.83c.85-1.14,1.92-2.14,3.21-2.98,1.29-.85,2.66-1.51,4.12-2,1.64-.54,3.4-.81,5.28-.79,1.88,.02,3.63,.4,5.26,1.14l-2.38,5.34Z"/>
        <path class="cls-1" d="M842.1,756.18l4.69-2.32,28.18,23.98-6.2,3.06-6.29-5.57-13.21,6.53,.69,8.33-6.07,3-1.8-37.02Zm16.2,15.44l-10.82-10.07,1.35,14.75,9.47-4.68Z"/>
        <path class="cls-1" d="M881.16,734.58l6.57-4.59,27.52,11.81,.08-.05-14.57-20.85,4.96-3.46,19.47,27.86-6.29,4.4-28.26-12.28-.08,.05,15.04,21.52-4.96,3.46-19.47-27.86Z"/>
        <path class="cls-1" d="M928.06,699.08l5.79-5.55,29.01,7.43,.07-.07-17.61-18.36,4.37-4.19,23.52,24.53-5.54,5.32-29.81-7.79-.07,.07,18.17,18.95-4.37,4.19-23.52-24.53Z"/>
        <path class="cls-1" d="M968.89,656.62l13.84-17.75,4.16,3.25-10.12,12.98,6.81,5.31,9.59-12.3,4.01,3.13-9.59,12.3,7.57,5.9,10.65-13.67,4.24,3.31-14.37,18.44-26.8-20.9Z"/>
        <path class="cls-1" d="M1015.42,585.62l2.52-5.5,12.48,5.71,6.61-14.45-12.48-5.72,2.52-5.5,30.9,14.15-2.52,5.5-13.7-6.27-6.61,14.45,13.7,6.27-2.52,5.5-30.9-14.15Z"/>
        <path class="cls-1" d="M1040.02,522.74l1.45-5.03,36.71-4.68-1.91,6.64-8.35,.9-4.07,14.16,6.62,5.1-1.87,6.5-28.58-23.6Zm22.33-1.57l-14.73,1.21,11.81,8.94,2.92-10.15Z"/>
        <path class="cls-1" d="M1050.2,479.08l.87-5.99,28.31,4.13,2.08-14.3,5.32,.78-2.96,20.28-33.63-4.9Z"/>
        <path class="cls-1" d="M1062.58,415.88c-.84,.62-1.56,1.51-2.14,2.67-.58,1.16-.89,2.33-.91,3.51-.01,.7,.06,1.41,.22,2.12,.16,.71,.42,1.35,.78,1.94,.36,.58,.83,1.07,1.41,1.44,.58,.38,1.29,.58,2.12,.59,.77,.01,1.43-.13,1.98-.44,.55-.31,1.02-.74,1.42-1.29,.4-.55,.74-1.23,1.05-2.02,.3-.79,.61-1.67,.92-2.62,.37-1.08,.8-2.2,1.27-3.36,.47-1.16,1.08-2.22,1.84-3.18,.76-.96,1.7-1.74,2.83-2.35,1.13-.6,2.53-.89,4.19-.85,1.82,.04,3.41,.4,4.76,1.1s2.46,1.62,3.33,2.75c.87,1.14,1.52,2.46,1.94,3.97,.42,1.51,.61,3.1,.58,4.76-.04,2.21-.49,4.36-1.35,6.46-.86,2.1-2.1,3.8-3.72,5.11l-3.95-4.4c1.17-.81,2.1-1.9,2.8-3.28s1.06-2.74,1.09-4.08c.01-.7-.06-1.42-.22-2.16-.16-.74-.44-1.41-.85-2.01-.4-.6-.91-1.09-1.53-1.47-.62-.38-1.39-.58-2.32-.6-.9-.02-1.64,.18-2.24,.58-.6,.4-1.12,.95-1.57,1.65s-.84,1.52-1.18,2.47c-.34,.95-.69,1.96-1.07,3-.34,1.02-.74,2.03-1.21,3.05-.47,1.02-1.08,1.92-1.83,2.72s-1.67,1.45-2.75,1.94c-1.08,.49-2.42,.72-4.02,.69-1.73-.03-3.21-.42-4.44-1.17s-2.25-1.71-3.04-2.89-1.38-2.52-1.75-4.02c-.37-1.5-.54-3.01-.51-4.55,.03-1.73,.37-3.47,1.01-5.24,.64-1.76,1.58-3.29,2.83-4.58l4.24,4.02Z"/>
      </g>
      <g>
        <path class="cls-1" d="M540.25,407.44c-3.5,24.41,31.56,26.23,38.97,46.27,32.4-13.12,62.57-19.35,62.57-17.4,0,.96-30.54,7.12-61.49,21.81,.43,3.69-.24,7.68-2.4,12.08-15.11,30.74-77.86,34.27-52.41,13.47,11.6-9.48,26.16-17.68,41.01-24.49-8.48-18.27-55.38-17.47-44.44-66.33,.17-.64,.36-1.27,.57-1.87-197.77,105.33-391.81-13.1-506.06,17.53-21.59,5.79-21.75-12.61-2.44-17.79,83.78-22.46,318.85,100.81,515.73-10.17,2.65-2.03,5.56-3.09,8.21-3.15,8.25-.16,14.07,9.42,2.18,30.03Zm-2.63,79.23c-12.1,12.11,18.68,4.03,28.34-15.62,1.13-2.31,1.67-4.43,1.71-6.43-10.96,6.14-21.44,13.43-30.06,22.05Z"/>
        <path class="cls-1" d="M649.48,412.44c6.16,32.8,17.31,55.48,33.24,55.48,19.05,0,53.66-48.06,83.19-48.06s29.82,61.2,67.04,61.2c43.43,0,88.6-57,88.6-44.49s-47.12,56.64-88.35,56.64c-49.64,0-47.87-58.89-67.32-58.89-26.41,0-56.61,49.15-83.19,49.15-81.48,0-75.76-323.76,24.84-323.76s14.02,223.15-58.06,252.74Zm-1.22-7.03c62.7-29.81,138.98-233.66,58.77-233.66-54.16,0-72.66,146.76-58.77,233.66Z"/>
      </g>
      <path class="cls-1" d="M383.09,709.3c-39.66-39.66-70.37-85.91-91.27-137.45-20.19-49.78-30.42-102.39-30.42-156.35s10.24-106.57,30.42-156.35c20.9-51.54,51.61-97.79,91.27-137.45,39.66-39.66,85.91-70.37,137.45-91.27C570.33,10.24,622.93,0,676.9,0s106.57,10.24,156.35,30.42c51.54,20.9,97.79,51.61,137.45,91.27l-4.24,4.24c-39.09-39.09-84.67-69.36-135.46-89.96-49.06-19.9-100.91-29.98-154.1-29.98s-105.03,10.09-154.1,29.98c-50.8,20.6-96.37,50.86-135.46,89.96-39.09,39.09-69.36,84.67-89.96,135.46-19.9,49.06-29.98,100.91-29.98,154.1s10.09,105.03,29.98,154.1c20.6,50.8,50.86,96.37,89.96,135.46l-4.24,4.24Z"/>
    </g>
  </g>
</svg>