<?xml version="1.0" encoding="UTF-8"?>
<svg id="Layer_1" data-name="Layer 1" xmlns="http://www.w3.org/2000/svg" viewBox="0 0 300 300">
  <defs>
    <style>
      .cls-1 {
        fill: #fff;
      }
    </style>
  </defs>
  <path class="cls-1" d="M300,300H0C0,200,0,100,0,0c100,0,200,0,300,0,0,100,0,200,0,300Zm-41.95-63.09v6.75h6.57v-6.6h-6.73c0-2.38,.02-4.76,.03-7.14h6.71v-6.85h-6.72v-6.81c2.73-.24,4.79-.43,6.83-.61v-13.34h-6.47c-.21,2.34-.4,4.4-.6,6.61h-13.73l.14,.14c-.05-2.38-.11-4.75-.16-7.13h7.2v-13.7c2.54-.21,4.6-.38,6.82-.56v-6.75h6.7v-41.76c-2.3-.11-4.25-.2-6.37-.31v-6.61c2.32-.2,4.38-.39,6.35-.56v-20.49c-2.32-.14-4.27-.26-6.33-.38v-6.58c2.34-.21,4.41-.4,6.47-.59v-13.35h-27.47c-.2,2.34-.38,4.42-.59,6.78-2.47,0-4.61,0-6.75,0v-6.73h-6.86v6.73h-7v7h-7.27v-13.82h-6.53c-.18,2.3-.35,4.37-.51,6.4h-6.84c0-7.14,0-13.94,0-20.74h6.84c.23,2.72,.4,4.79,.57,6.82h6.36v-13.48c-2.34-.21-4.4-.4-6.76-.61v-13.75h6.69v-13.73c-2.31-.13-4.25-.24-6.45-.36-.14-2.32-.27-4.39-.39-6.46h-6.62c-.11,2.27-.2,4.21-.31,6.64h-20.61c-.16,2.55-.29,4.61-.42,6.76-2.4,.21-4.48,.39-6.72,.59,0,2.46,0,4.59,0,6.73h-7.18c0-5.08,0-9.6,0-14.12h6.75v-6.57h-6.6v6.73c-4.71,0-9.42,0-14.13-.01v-6.74h-20.86v6.74h-13.66v6.71c2.33,.15,4.27,.27,6.72,.42v20.69c5,0,9.47,0,13.94,0v20.96h-13.98c-.06-2.31-.12-4.62-.18-6.93h6.75v-6.57h-6.6v6.73h-7.28v-27.9c-2.48-.14-4.43-.26-6.54-.38-.19-2.35-.36-4.42-.54-6.55-2.38-.21-4.44-.4-6.83-.62v-13.33h-6.49v27.49c2.31,.13,4.26,.24,6.35,.36v6.58c-2.34,.21-4.4,.4-6.47,.59v13.33h6.49c.2-2.36,.38-4.43,.55-6.48h6.74v20.44h6.68c.23-2.4,.42-4.47,.61-6.46,2.6-.18,4.75-.32,6.89-.45v7.09c2.5,.13,4.42,.24,6.87,.37,0,4.79,0,9.34,0,13.89h-7.01v7.01h-7v7h-14.16c0-2.93,0-5.05,0-7.16h6.8c.23-2.66,.41-4.73,.59-6.8,2.37-.12,4.32-.22,6.35-.32v-6.41h-41.46c-.14,2.33-.26,4.28-.39,6.34-2.37,.21-4.44,.4-6.72,.61,0,2.43,0,4.57,0,6.71h-13.74v6.59h13.59v-6.74h7.13v14.19h-6.79c-.23,2.65-.41,4.72-.59,6.69h-6.54c-.13-2.29-.24-4.35-.38-6.91h-13.53c-.23-2.6-.41-4.67-.57-6.55h-6.31v20.43h6.42c.15-2.28,.28-4.36,.42-6.42h6.89c0,4.81,0,9.28,0,13.75h-13.67v13.62h6.32c.2-2.34,.38-4.42,.59-6.77h6.77v6.79c2.63,.23,4.7,.4,6.71,.57v6.74h-20.46v13.56h6.51c.11-2.32,.21-4.26,.31-6.33h6.6c.21,2.33,.4,4.39,.6,6.65,4.79,0,9.25,0,13.71,0,0,2.4,0,4.79-.01,7.19h-6.67v13.64h13.29v-6.48c-2.35-.2-4.41-.37-6.78-.57,0-2.46,0-4.6,0-6.74h7.02v-7.03c2.37,0,4.75,0,7.12,0v6.75h6.57v-6.6h-6.73v-6.74h20.87c.21,2.41,.39,4.49,.55,6.37h6.78v-13.78c2.66,0,4.81,0,6.96,0v7.01h7.01v6.81c-2.72,.24-4.77,.43-7,.63,0,4.81,0,9.26,0,13.71-2.39,0-4.78,0-7.16,0v-6.73h-13.83c0,2.46,0,4.59,0,6.73h-13.71v6.84c4.8,0,9.25,0,13.7,0v7c2.72,0,4.86,0,7,0,0,2.39,0,4.78,0,7.16h-6.64v14.11h13.26v6.58c-2.4,.21-4.47,.4-6.49,.58-.14,2.38-.26,4.33-.38,6.41-2.36,.19-4.43,.36-6.41,.52v13.42h6.32c.21-2.33,.39-4.41,.6-6.79,2.45,0,4.6,0,6.75,0v6.73h6.86v-6.73c2.38,0,4.76,0,7.14,0v6.74h13.84c0-2.46,0-4.59,0-6.73h6.73v-6.86h-6.73c0-4.71,0-9.43,0-14.14h6.74v-13.86h-6.74v-6.93c2.64-.12,4.59-.21,6.79-.31v-20.55c-2.32-.21-4.38-.4-6.79-.62,0-4.79,0-9.27,0-13.74h7.01v-14.01h13.99c0-7.4,0-14.19,0-20.99h7.16v6.99c5.06,0,9.52,0,13.99,0v14.18c-2.9,0-5.01,0-7.12,0v-6.75h-6.57v6.6h6.73c-.01,4.72-.03,9.44-.04,14.16h-7.2v13.99c-2.63,0-4.77,0-6.91,0v-13.74h-6.59v13.59h6.74c0,4.7,0,9.41,0,14.11h-6.75v13.55h6.6v-13.7c7.04,0,14.07,0,21.11,0v13.83c-2.72,.25-4.78,.43-6.77,.61v13.3h6.44c.22-2.4,.41-4.47,.59-6.41h6.43c.21,2.31,.4,4.39,.6,6.67,2.43,0,4.57,0,6.71,0v6.75h6.57v-6.6h-6.73v-13.77c-2.55-.23-4.6-.41-7.1-.63v-13.6h-6.9v-6.81c2.74-.23,4.81-.4,6.69-.56v-6.5c-2.33-.14-4.27-.26-6.35-.38-.19-2.36-.36-4.42-.53-6.55-2.37-.2-4.44-.37-6.8-.57,0-2.47,0-4.6,0-6.74h6.8c.24-2.63,.42-4.68,.63-7.03,4.82,0,9.28,0,13.73,0v7.01h7.01c0,4.71,0,9.42,0,14.12h-6.75v6.57h6.6v-6.73h6.72v14.38h-13.36v6.44c2.32,.21,4.38,.39,6.93,.62v13.47c2.47,.14,4.41,.25,6.62,.38,.13,2.33,.24,4.39,.38,6.94h13.64c.12,2.46,.22,4.4,.34,6.85h13.52c.23,2.57,.41,4.64,.58,6.64h6.54c.11-2.3,.2-4.24,.3-6.36h6.6c.21,2.33,.4,4.4,.6,6.65,2.43,0,4.57,0,6.71,0v6.82c2.65,.22,4.71,.4,6.83,.57,.11,2.34,.2,4.28,.3,6.4h6.45v-13.64h-13.73c0-4.71,.01-9.42,.02-14.13,2.38,0,4.76-.01,7.13-.02Zm-70.27,21.36v-6.88h-6.72v6.7h-7.21v-13.76h-13.92v6.72l.14-.14c-2.37,.06-4.74,.11-7.11,.17v-6.75h-6.57v6.6h6.73v13.73h27.81c0-2.45,0-4.58,0-6.72,2.33,.06,4.67,.12,7,.18v6.47h13.82v-6.31c-4.82,0-9.39,0-13.95-.01Zm28.51-224.04v48.45h48.36V34.23h-48.36ZM82.63,264.76v-48.34H34.3v48.34h48.33ZM34.26,82.63h48.33V34.28H34.26v48.35Zm28.01,7.59v6.48h20.37v-6.48h-20.37Zm-14.46,.18h-13.53v6.28h13.53v-6.28Zm167.88,174.49v-13.53h-6.3v13.53h6.3ZM47.79,202.25h-13.49v6.42h13.49v-6.42Zm-6.56-91.53h13.43v-6.36h-13.43v6.36Zm104.87,125.86h6.54v-6.19h-6.54v6.19Zm77.09,28.02h6.54v-6.3h-6.54v6.3Zm20.55-6.31h-6.41v6.32h6.41v-6.32Z"/>
  <path d="M229.93,97.09h6.75c.2-2.37,.38-4.44,.59-6.78h27.47v13.35c-2.06,.19-4.12,.37-6.47,.59v6.58c2.06,.12,4.01,.24,6.33,.38v20.49c-1.97,.17-4.03,.35-6.35,.56v6.61c2.12,.1,4.07,.2,6.37,.31v41.76h-6.7l.14,.16v-20.77h-7.28v13.94h-13.63c-.15,2.46-.26,4.4-.39,6.5-2.35,.18-4.41,.34-6.54,.51-.21,2.38-.4,4.43-.6,6.68h-13.71s.14,.14,.14,.14c0-7.04,.02-14.09,.03-21.13l-.15,.15h7.28v-13.89c2.48-.15,4.42-.27,6.89-.42v-13.86c5.01,0,9.47,0,13.94,0,0,4.71,.01,9.42,.02,14.14-2.26,0-4.53,0-6.84,0-.22,2.61-.4,4.68-.57,6.78-2.35,.12-4.3,.21-6.39,.32v6.53h13.67v-13.76h13.78v-6.69c-2.34-.2-4.39-.38-6.47-.56-.2-2.39-.37-4.45-.55-6.61h-6.78v-6.81c-2.51-.22-4.56-.39-6.56-.56v-6.44c2.39-.2,4.44-.38,6.57-.56v-6.76c2.32,.06,4.65,.12,6.97,.18,.11,2.24,.22,4.47,.32,6.52h6.56v-6.37c-2.49,0-4.75,0-7,0,0-2.37,0-4.74,0-7.18h-6.86v-7c-4.95,0-9.47,0-13.99,0,.05-2.38,.09-4.76,.14-7.14l-.14,.16Z"/>
  <path d="M243.94,208.92h13.73c.2-2.21,.39-4.27,.6-6.61h6.47v13.34c-2.04,.18-4.1,.37-6.83,.61v6.81l.16-.14h-7.14v7.14l.14-.14c-2.32-.01-4.65-.03-6.97-.04-.11-2.24-.22-4.47-.32-6.52h-6.56v6.37c2.49,0,4.75,0,7,0,0,2.37,0,4.74,0,7.32h6.86s-.15-.15-.16-.15c0,4.71-.01,9.42-.02,14.13,0,0,.15-.15,.15-.15h-6.71c-.2-2.26-.39-4.33-.6-6.65h-6.6c-.1,2.12-.19,4.06-.3,6.36h-6.54c-.18-2-.36-4.07-.58-6.64h-13.52c-.12-2.45-.22-4.39-.34-6.85h-13.64c-.14-2.55-.25-4.61-.38-6.94-2.2-.13-4.15-.24-6.62-.38v-13.47c-2.54-.23-4.6-.41-6.93-.62v-6.44h13.36v-14.38h-6.72l.15,.15c0-4.71,0-9.42,0-14.12l-.16,.14h13.8c.22,2.6,.39,4.67,.58,7h6.76l-.14-.14v6.83c2.74,.23,4.81,.4,6.92,.58,.11,2.34,.2,4.29,.3,6.41h6.6c.21-2.33,.4-4.4,.6-6.67h6.72l-.14-.14v7.14h7.14l-.16-.14c.05,2.38,.11,4.75,.16,7.13-2.25,0-4.5,0-6.77,0v6.61h6.63v-6.75Zm-34.54,.17v20.59h20.23v-20.59h-20.23Z"/>
  <path d="M194.91,75.93v20.74h6.84c.16-2.03,.33-4.1,.51-6.4h6.53v13.82h7.27l-.14-.16c.05,2.38,.09,4.76,.14,7.14h-7v7c-2.25-.1-4.5-.2-6.81-.3-.2-2.46-.37-4.52-.55-6.69-2.5,0-4.63,0-6.76,0,0-2.26,0-4.53,0-6.84-2.61-.22-4.68-.4-6.78-.57-.12-2.35-.21-4.3-.32-6.39h-6.53v13.67h13.76c-.11,2.26-.21,4.51-.34,7.29h-13.56c-.16,2.49-.29,4.44-.43,6.48-2.38,.21-4.45,.4-6.83,.61v6.75l.14-.14h-7.14v7.14l.14-.14h-7.14l.14,.14v-20.79c2.59-.22,4.66-.39,7.03-.59v-6.75l-.15,.15h6.76v-13.87c-2.36-.21-4.41-.39-6.79-.6,0-4.8,0-9.24,0-13.69,2.25,0,4.5,0,6.77,0v-6.61h-6.63v6.75c-2.25-.11-4.5-.21-6.81-.32-.2-2.45-.37-4.51-.57-6.85h-6.75l.15,.15c-.05-2.37-.11-4.74-.16-7.12,4.65,0,9.3,0,14.14,0v-7.01l-.14,.14h7.14l-.14-.14v7.14h14.14l-.14-.14c-.01,2.32-.03,4.65-.04,6.97h-6.52v13.87h6.38c0-4.82,0-9.41,0-14,2.45,.1,4.88,.2,7.32,.29l-.16-.14Z"/>
  <path d="M216.29,34.23h48.36v48.45h-48.36V34.23Zm7.12,6.94v34.58h34.31V41.17h-34.31Z"/>
  <path d="M82.63,264.76H34.3v-48.34h48.33v48.34Zm-41.25-41.55v34.41h34.38v-34.41H41.37Z"/>
  <path d="M34.26,82.63V34.28h48.33v48.35H34.26Zm6.94-7h34.57V41.29H41.2v34.34Z"/>
  <path d="M62.07,187.91h-13.71c-.2-2.26-.39-4.32-.6-6.65h-6.6c-.1,2.07-.2,4.02-.31,6.33h-6.51v-13.56h20.46v-6.74c-2.01-.17-4.08-.35-6.71-.57v-6.79l-.16,.14h14.14l-.14-.14v13.76h21.01v-6.76h27.99v7.14l.14-.16h-6.96v13.78h-6.78c-.16-1.89-.34-3.96-.55-6.37h-20.87v6.74l.15-.15c-2.37,0-4.75,0-7.12,0,0,0,.14,.16,.14,.16v-6.75h-7.14v6.75l.14-.16Z"/>
  <path d="M96.91,117.93v7.16h14.16l-.14-.16v6.75h7.14v-6.75l-.14,.14h14.14v-14.14l-.14,.14c2.32-.05,4.63-.11,6.95-.16,0,0-.16-.14-.16-.14,.12,7.1,.24,14.2,.36,21.3-2.21,0-4.42,0-7.01,0v7.01h-14v7h-7.23v13.55h-13.91c0-4.8,0-9.24,0-13.69,2.26,0,4.51,0,6.74,0v-13.87h-13.74l.14-14.14-.14,.14h7.14l-.16-.14Z"/>
  <path d="M131.91,236.93c0,4.71,0,9.43,0,14.14l.16-.14h-6.8c-.22-2.61-.39-4.68-.57-6.85-2.5,0-4.63,0-6.76,0,0-2.25,0-4.5,0-6.77h-6.61v6.63h6.75c-.05,4.71-.1,9.42-.15,14.13l.14-.16c-2.38,0-4.76,0-7.14,0l.14,.16v-6.75h-7.14v6.75l.14-.16h-6.75c-.21,2.38-.4,4.46-.6,6.79h-6.32v-13.42c1.98-.16,4.05-.33,6.41-.52,.12-2.08,.24-4.03,.38-6.41,2.02-.18,4.1-.37,6.49-.58v-6.58h-13.26v-14.11h6.64l-.14-.15v6.75h7.14v-6.75l-.14,.14h6.78c.22,2.57,.4,4.62,.57,6.62h6.51c.19-2.37,.36-4.43,.54-6.62h6.74l-.14-.14v14.14h7.14l-.16-.14Z"/>
  <path d="M117.91,82.95c.06,2.31,.12,4.62,.18,6.93,0,0,.14-.16,.14-.16-2.15,.14-4.3,.29-6.9,.47-.19,1.99-.38,4.05-.61,6.46h-6.68v-20.44h-6.74c-.18,2.05-.35,4.12-.55,6.48h-6.49v-13.33c2.07-.19,4.13-.38,6.47-.59v-6.58c-2.09-.12-4.04-.23-6.35-.36v-27.49h6.49v13.33c2.39,.22,4.45,.4,6.83,.62,.17,2.12,.35,4.2,.54,6.55,2.11,.12,4.06,.24,6.54,.38v27.9h7.28l-.15-.15Z"/>
  <path d="M48.09,153.07v-13.75h-6.89c-.13,2.06-.27,4.14-.42,6.42h-6.42v-20.43h6.31c.16,1.88,.35,3.95,.57,6.55h13.53c.14,2.56,.26,4.63,.38,6.91h6.54c.17-1.97,.35-4.04,.59-6.69,2.27,0,4.53,0,6.79,0,0,0-.14-.16-.14-.16v7.01h7.14v7h7c0,2.38,0,4.75,0,7.13-2.21,0-4.42,0-7.01,0v7.01c-4.71-.05-9.43-.1-14.14-.14,0,0,.14,.14,.14,.14v-7.14h-14.14l.16,.14Z"/>
  <path d="M131.91,180.93v13.74c2.41,.22,4.48,.41,6.79,.62v20.55c-2.21,.1-4.15,.19-6.79,.31v6.93l.16-.14h-7.14l.14,.14v-13.82c-2.68-.23-4.75-.4-7.15-.61,0-2.44,0-4.57,0-6.71,2.25,0,4.5,0,6.77,0v-6.61h-6.63v6.75c-2.38-.05-4.75-.1-7.13-.15l.15,.14v-13.71c2.23-.2,4.29-.38,7-.63v-6.81l-.16,.14h14.14l-.16-.14Z"/>
  <path d="M62.09,118.05v-6.71c2.28-.21,4.35-.39,6.72-.61,.13-2.06,.25-4.01,.39-6.34h41.46v6.41c-2.03,.1-3.98,.2-6.35,.32-.18,2.07-.36,4.14-.59,6.8-2.28,0-4.54,0-6.8,0,0,0,.16,.14,.16,.14v-6.75h-7.14v6.75l.14-.14c-2.38,.05-4.75,.1-7.13,.15,0-2.25,0-4.5,0-6.77h-6.61v6.63h6.75c-.11,2.25-.21,4.5-.32,6.81-2.45,.2-4.51,.37-6.68,.55,0,2.51,0,4.64,0,6.77-2.38-.05-4.76-.09-7.14-.14,0,0,.14,.16,.14,.16,0-4.53,0-9.06,0-14.19h-7.13l.15,.15Z"/>
  <path d="M167.09,55.07v-6.73c2.24-.2,4.31-.38,6.72-.59,.13-2.15,.26-4.21,.42-6.76h20.61c.11-2.43,.21-4.37,.31-6.64h6.62c.13,2.07,.25,4.14,.39,6.46,2.2,.12,4.14,.23,6.45,.36v13.73h-6.69l.14,.16v-6.75h-7.14v6.75l.14-.14h-6.79c-.22-2.58-.4-4.64-.57-6.59h-6.92v13.59h-6.86l.14,.14v-7.14h-7.14l.16,.14Z"/>
  <path d="M132.07,68.91h-13.94v-20.69c-2.45-.15-4.39-.27-6.72-.42v-6.71h13.66l-.14-.16v7.14h7.14l-.14-.14v7.23h14.14v6.91h-14.14v7l.14-.16Z"/>
  <path d="M166.91,180.95v6.74c2.36,.2,4.42,.37,6.8,.57,.17,2.13,.34,4.2,.53,6.55,2.08,.12,4.02,.24,6.35,.38v6.5c-1.88,.16-3.94,.33-6.69,.56v6.81s.15-.15,.15-.15c-7.04,0-14.07,0-21.11,0,0,0,.15,.15,.15,.15,0-4.7,0-9.41,0-14.11l-.15,.15h6.91v-13.99h7.2l-.15-.15Z"/>
  <path d="M125.09,111.07v-13.89c-2.45-.13-4.37-.23-6.87-.37,0-2.36,0-4.72,0-7.1,0,0-.14,.16-.14,.16,4.45,0,8.9,0,13.99,0,0-7.14,0-14.05,0-20.96,0,0-.14,.16-.14,.16h6.74v27.66c-2.36,.21-4.42,.4-6.74,.6v13.74l.14-.14c-2.38,0-4.76,0-7.14,0l.16,.14Z"/>
  <path d="M152.95,251.09c2.37-.06,4.74-.11,7.11-.17,0,2.25,0,4.5,0,6.77h6.61v-6.63h-6.75v-6.72h13.92v13.76h7.21l-.15-.15v6.72h-27.81v-13.73l-.15,.15Z"/>
  <path d="M174.07,152.91h-13.99v-6.99l-.15,.14h7.14v-7.14l-.14,.14h7.14v-7.14l-.14,.14h6.79c.23,2.66,.41,4.73,.59,6.79,2.37,.13,4.31,.24,6.36,.35v13.72h-6.74l.14,.14v-6.75h-7.14v6.75l.14-.16Z"/>
  <path d="M173.9,209.06h6.9v13.6c2.5,.22,4.55,.41,7.1,.63v13.77l.15-.15h-6.71c-.21-2.28-.39-4.36-.6-6.67h-6.43c-.18,1.93-.37,4.01-.59,6.41h-6.44v-13.3c1.98-.18,4.05-.37,6.77-.61,0-4.61,0-9.22,0-13.83,0,0-.15,.15-.15,.15Z"/>
  <path d="M201.93,54.91v13.75c2.35,.21,4.41,.4,6.76,.61v13.48h-6.36c-.17-2.03-.34-4.1-.57-6.82-2.32,0-4.58,0-6.84,0,0,0,.16,.14,.16,.14v-7.14h-7.14l.14,.14v-6.8c2.62-.22,4.68-.39,7-.58v-6.76l-.14,.14c2.38,0,4.76,0,7.14,0l-.14-.16Z"/>
  <path d="M167.06,181.1c.01-4.72,.03-9.44,.04-14.16l-.15,.15h7.12c0-4.87,0-9.52,0-14.18,0,0-.14,.16-.14,.16h7.14l-.14-.14v13.82c2.69,.23,4.75,.4,7,.59v6.73l.14-.16h-13.73c-.21,2.35-.39,4.4-.63,7.03-2.29,0-4.55,0-6.8,0,0,0,.15,.15,.15,.15Z"/>
  <path d="M257.93,180.91v6.75c-2.21,.18-4.27,.35-6.82,.56v13.7c-2.72,0-4.96,0-7.2,0,0,0,.16,.14,.16,.14v-7.14h-7.14l.14,.14v-6.79c2.6-.22,4.65-.39,6.7-.57,.21-2.4,.4-4.45,.59-6.64h13.71l-.14-.16Z"/>
  <path d="M159.91,40.95v14.12c2.73,0,4.95,0,7.18,0,0,0-.16-.14-.16-.14v7.14l.14-.14c-4.71,.05-9.43,.1-14.14,.14v-13.83c-2.55-.22-4.62-.39-6.86-.58v-6.73s-.14,.16-.14,.16c4.71,0,9.42,0,14.13,.01,0,0-.15-.15-.15-.15Z"/>
  <path d="M152.92,145.93v20.99h-13.99l.14,.16v-6.78c2.59-.23,4.64-.41,7.12-.63v-13.59h6.88l-.15-.14Z"/>
  <path d="M125.07,41.09v-6.74h20.86c0,2.24,0,4.49,0,6.74,0,0,.14-.16,.14-.16h-6.82c-.23,2.7-.4,4.76-.59,7h-6.73l.14,.14v-7.14h-7.14l.14,.16Z"/>
  <path d="M48.09,159.93h-6.77c-.2,2.35-.39,4.43-.59,6.77h-6.32v-13.62c4.49,0,9.08,0,13.67,0,0,0-.16-.14-.16-.14v7.14l.16-.14Z"/>
  <path d="M250.9,251.06h13.73v13.64h-6.45c-.1-2.12-.19-4.06-.3-6.4-2.12-.18-4.18-.35-6.83-.57,0-2.3,0-4.56,0-6.82,0,0-.15,.15-.15,.15Z"/>
  <path d="M61.91,194.95v6.74c2.37,.2,4.43,.38,6.78,.57v6.48h-13.29v-13.64h6.67l-.15-.15Z"/>
  <path d="M62.27,90.22h20.37v6.48h-20.37v-6.48Z"/>
  <path d="M131.91,223.07h6.74v13.86c-2.25,0-4.5,0-6.74,0,0,0,.16,.14,.16,.14v-14.14l-.16,.14Z"/>
  <path d="M47.81,90.41v6.28h-13.53v-6.28h13.53Z"/>
  <path d="M153.1,194.94h-6.74v-13.59h6.59c0,4.6,0,9.17,0,13.74,0,0,.15-.15,.15-.15Z"/>
  <path d="M138.93,166.91v14.01c-2.5,0-4.76,0-7.01,0,0,0,.16,.14,.16,.14-.05-4.71-.09-9.43-.14-14.14,2.38,.05,4.76,.1,7.14,.14l-.14-.16Z"/>
  <path d="M90.09,202.07v-6.73h13.83v6.73l.15-.15h-14.14l.16,.14Z"/>
  <path d="M215.69,264.89h-6.3v-13.53h6.3v13.53Z"/>
  <path d="M61.94,117.9v6.74h-13.59v-6.59c4.6,0,9.17,0,13.74,0,0,0-.15-.15-.15-.15Z"/>
  <path d="M47.79,202.25v6.42h-13.49v-6.42h13.49Z"/>
  <path d="M131.91,257.93v6.73h-13.84c0-2.26,0-4.5,0-6.74,0,0-.14,.16-.14,.16h14.14l-.16-.14Z"/>
  <path d="M187.77,258.28h13.96v6.31h-13.82c0-2.25,0-4.36,0-6.48,0,0-.14,.16-.14,.16Z"/>
  <path d="M90.07,208.91h-13.7v-6.84c4.55,0,9.13,0,13.71,0,0,0-.16-.14-.16-.14,0,2.38,0,4.76,0,7.14l.14-.16Z"/>
  <path d="M103.92,202.07c2.39,0,4.78,0,7.16,0,0,0-.15-.14-.15-.14v14h-7l.14,.14c0-4.71,0-9.43,0-14.14l-.15,.15Z"/>
  <path d="M41.24,110.72v-6.36h13.43v6.36h-13.43Z"/>
  <path d="M152.94,208.9v13.7h-6.6v-13.55c2.27,0,4.51,0,6.75,0,0,0-.15-.15-.15-.15Z"/>
  <path d="M160.08,145.93c-2.39,0-4.78,0-7.16,0,0,0,.15,.14,.15,.14v-7h7l-.14-.14v7.14l.15-.14Z"/>
  <path d="M167.1,166.94h-6.73v-6.6h6.57c0,2.27,0,4.51,0,6.75,0,0,.15-.15,.15-.15Z"/>
  <path d="M118.09,180.93h-7.01c0-2.49,0-4.75,0-7.01,0,0-.14,.16-.14,.16,2.38-.05,4.76-.1,7.14-.14-.05,2.38-.09,4.76-.14,7.14l.16-.14Z"/>
  <path d="M195.09,180.93h-7.01c0-2.49,0-4.75,0-7.01,0,0-.14,.16-.14,.16h7v7l.16-.14Z"/>
  <path d="M62.06,195.1c0-2.4,0-4.79,.01-7.19,0,0-.14,.16-.14,.16h7.14s-.14-.16-.14-.16c0,2.14,0,4.29,0,7.03-2.49,0-4.75,0-7.02,0,0,0,.15,.15,.15,.15Z"/>
  <path d="M75.9,188.06h6.73v6.6h-6.57c0-2.27,0-4.51,0-6.75,0,0-.15,.15-.15,.15Z"/>
  <path d="M111.07,125.09v-7h7l-.14-.16c0,2.38,0,4.76,0,7.14l.14-.14c-2.38,0-4.76,0-7.14,0l.14,.16Z"/>
  <path d="M194.94,194.9v6.73h-6.6v-6.57c2.27,0,4.51,0,6.75,0,0,0-.15-.15-.15-.15Z"/>
  <path d="M118.07,118.09v-7.01c2.49,0,4.75,0,7.01,0,0,0-.16-.14-.16-.14v7h-7l.14,.16Z"/>
  <path d="M97.07,215.92h-7c0-2.48,0-4.74,0-7,0,0-.14,.16-.14,.16h7v7l.14-.15Z"/>
  <path d="M97.07,223.08c0-2.39,0-4.78,0-7.16,0,0-.14,.15-.14,.15h7.14l-.14-.14c0,2.38,0,4.76,0,7.14l.14-.14h-7.14l.14,.15Z"/>
  <path d="M216.07,104.09v-7h7l-.14-.16c.05,2.38,.1,4.76,.14,7.14-2.38-.05-4.76-.09-7.14-.14l.14,.16Z"/>
  <path d="M223.07,97.09v-6.73h6.86c0,2.23,0,4.48,0,6.73,0,0,.14-.16,.14-.16-2.38,0-4.76,0-7.14,0l.14,.16Z"/>
  <path d="M257.91,223.07h6.72v6.85c-2.22,0-4.47,0-6.71,0,0,0,.15,.15,.15,.15v-7.14l-.16,.14Z"/>
  <path d="M146.11,236.58v-6.19h6.54v6.19h-6.54Z"/>
  <path d="M258.05,236.91c-2.38,0-4.76,.01-7.13,.02,0,0,.15,.15,.15,.15v-7.14l-.14,.14h7.14s-.14-.15-.15-.15c0,2.38-.02,4.76-.03,7.14l.15-.15Z"/>
  <path d="M187.9,237.06h6.73v6.6h-6.57c0-2.27,0-4.51,0-6.75,0,0-.15,.15-.15,.15Z"/>
  <path d="M257.9,237.06h6.73v6.6h-6.57c0-2.27,0-4.51,0-6.75,0,0-.15,.15-.15,.15Z"/>
  <path d="M118.06,83.1v-6.73h6.6v6.57c-2.27,0-4.51,0-6.75,0,0,0,.15,.15,.15,.15Z"/>
  <path d="M153.1,250.94h-6.73v-6.6h6.57c0,2.27,0,4.51,0,6.75,0,0,.15-.15,.15-.15Z"/>
  <path d="M131.91,251.07h6.73v6.86c-2.23,0-4.48,0-6.73,0,0,0,.16,.14,.16,.14v-7.14l-.16,.14Z"/>
  <path d="M181.06,258.1v-6.7h6.72c0,2.16,0,4.52,0,6.88,0,0,.14-.16,.14-.16-2.34-.05-4.67-.11-7-.17,0,0,.15,.15,.15,.15Z"/>
  <path d="M110.93,257.91v6.73h-6.86c0-2.23,0-4.48,0-6.73,0,0-.14,.16-.14,.16h7.14l-.14-.16Z"/>
  <path d="M160.06,41.1v-6.73h6.6v6.57c-2.27,0-4.51,0-6.75,0,0,0,.15,.15,.15,.15Z"/>
  <path d="M223.2,264.61v-6.3h6.54v6.3h-6.54Z"/>
  <path d="M243.75,258.3v6.32h-6.41v-6.32h6.41Z"/>
  <path class="cls-1" d="M194.93,181.07v-7h-7v-6.73c-2.25-.19-4.31-.37-7-.59v-13.82h6.74v-13.72c-2.05-.11-3.99-.22-6.36-.35-.18-2.05-.36-4.12-.59-6.79h-6.79v-6.75c2.37-.21,4.45-.4,6.83-.61,.13-2.04,.26-3.99,.43-6.48h13.56c.13-2.77,.24-5.03,.34-7.29l-.14,.14h6.76c.18,2.17,.35,4.23,.55,6.69,2.31,.1,4.56,.2,6.81,.3,0,0-.13-.14-.13-.14,.1,2.25,.2,4.51,.31,6.98,4.89,0,9.35,0,13.81,0,0,2.24,0,4.48,0,6.75h6.57v-6.6h-6.73c.06-4.71,.11-9.42,.17-14.13l-.14,.14c2.38,0,4.76,0,7.14,0,0,0-.14-.14-.14-.14,.1,2.25,.2,4.51,.32,7.14h13.82l-.14-.13v6.76c-2.13,.18-4.18,.36-6.57,.56v6.44c2,.17,4.05,.35,6.56,.56v6.81l.14-.14h-13.94v13.86c-2.46,.15-4.41,.27-6.89,.42v13.89c-2.77,0-5.03,0-7.28,0,0-2.26,0-4.52,0-6.68h-20.64v6.32c2.34,.2,4.42,.38,6.45,.56,.23,2.44,.42,4.51,.6,6.4h6.38c.2-2.34,.38-4.42,.59-6.76h6.78c0,7.04-.02,14.09-.03,21.13h-6.76c-.19-2.33-.37-4.4-.58-7h-13.8Zm.02-48.98v-6.75h-6.57v6.6h6.73v7h7v13.72h13.81c0-2.46,0-4.59,0-6.73h6.73v-6.84c-2.46,0-4.59,0-6.72,0v-6.73h-6.86v6.73c-2.37,0-4.75,0-7.12,0v-7c-2.73,0-4.86,0-7,0Z"/>
  <path class="cls-1" d="M258.07,181.07h-13.71c-.2,2.19-.38,4.24-.59,6.64-2.05,.17-4.1,.35-6.7,.57v6.79h-6.72c-.2,2.27-.39,4.35-.6,6.67h-6.6c-.1-2.12-.19-4.06-.3-6.41-2.11-.18-4.18-.35-6.92-.58v-6.83h13.71c.2-2.25,.39-4.31,.6-6.68,2.13-.16,4.19-.32,6.54-.51,.13-2.1,.24-4.04,.39-6.5h13.63v-13.94h7.28v20.77Z"/>
  <path class="cls-1" d="M243.92,139.06h6.78c.18,2.16,.35,4.22,.55,6.61,2.08,.18,4.14,.36,6.47,.56v6.69h-13.78l.14,.14c0-4.71-.01-9.42-.02-14.14,0,0-.14,.14-.14,.14Z"/>
  <path class="cls-1" d="M243.94,152.92v13.76h-13.67v-6.53c2.09-.1,4.04-.2,6.39-.32,.18-2.1,.35-4.17,.57-6.78,2.31,0,4.58,0,6.84,0,0,0-.14-.14-.14-.14Z"/>
  <path class="cls-1" d="M229.93,104.07h13.99v7l.14-.13c-4.71,0-9.42,0-14.14,0,0,0,.14,.14,.14,.14,0-2.38,0-4.76,0-7.14l-.13,.14Z"/>
  <path class="cls-1" d="M250.77,118.26h7.01v6.37h-6.56c-.1-2.05-.21-4.28-.32-6.53,0,0-.13,.15-.13,.15Z"/>
  <path class="cls-1" d="M243.93,111.07h6.86c0,2.45,0,4.81,0,7.18,0,0,.13-.15,.13-.14-2.33-.05-4.65-.11-6.98-.17,0,0,.14,.13,.14,.13,0-2.38,0-4.76,0-7.13l-.14,.13Z"/>
  <path class="cls-1" d="M222.93,96.93c2.38,0,4.76,0,7.14,0-.05,2.38-.09,4.76-.14,7.14,0,0,.13-.14,.13-.14-2.38,0-4.76,0-7.14,0l.14,.13c-.05-2.38-.1-4.76-.14-7.14Z"/>
  <path class="cls-1" d="M209.4,209.09h20.23v20.59h-20.23v-20.59Zm7.01,7.02v6.54h6.19v-6.54h-6.19Z"/>
  <path class="cls-1" d="M236.93,194.93h7.14v7.14h-7.14v-7.14Z"/>
  <path class="cls-1" d="M243.94,208.92v6.75h-6.63v-6.61c2.27,0,4.52,0,6.77,0,0,0-.14-.14-.14-.14Z"/>
  <path class="cls-1" d="M244.23,229.74h-7.01v-6.37h6.56c.1,2.05,.21,4.28,.32,6.53,0,0,.13-.15,.13-.15Z"/>
  <path class="cls-1" d="M258.07,230.07h-7.14v-7.14h7.14v7.14Z"/>
  <path class="cls-1" d="M251.07,229.93v7.14h-6.86c0-2.59,0-4.95,0-7.32,0,0-.13,.15-.13,.14,2.33,0,4.65,.02,6.98,.03Z"/>
  <path class="cls-1" d="M160.07,139.07h-7v7h-6.88v13.59c-2.49,.22-4.54,.4-7.12,.63v6.78c-2.38-.05-4.76-.1-7.14-.14,0,0,.13,.14,.13,.14v-13.81c2.55-.23,4.61-.41,7-.63v-13.69l-.14,.14h6.98c0-2.85,0-4.98,0-7.12,2.24,0,4.48,0,6.75,0v-6.57h-6.6v6.73c-2.38-.06-4.75-.11-7.13-.17l.14,.13c-.12-7.1-.24-14.2-.35-21.29,2.36,0,4.72,0,7.19,0,0-2.62,0-4.73,0-6.83,2.24,0,4.48,0,6.75,0v-6.57h-6.6v6.73h-6.85c-.13,2.6-.23,4.7-.33,6.81-2.32,.05-4.63,.11-6.95,.16v-13.74c2.32-.21,4.37-.39,6.74-.6v-27.66h-6.74v-7c4.84,0,9.49,0,14.14,0,0,0-.13-.14-.13-.14v7.14h7.14l-.14-.13c.05,2.37,.11,4.74,.16,7.12-2.24,0-4.48,0-6.75,0v6.57h6.6v-6.73h6.75c.19,2.35,.36,4.41,.57,6.85,2.31,.11,4.56,.22,6.81,.32l-.14-.14v13.69c2.37,.21,4.43,.39,6.79,.6v13.87c-2.27,0-4.52,0-6.76,0,0-2.24,0-4.48,0-6.75h-6.57v6.6h6.73v6.75c-2.37,.2-4.44,.37-7.03,.59v20.79Z"/>
  <path class="cls-1" d="M195.07,54.93v6.76c-2.32,.19-4.38,.36-7,.58v6.8h-14.14v-7.14h6.86v-13.59h6.92c.17,1.96,.34,4.01,.57,6.59h6.79Z"/>
  <path class="cls-1" d="M195.08,110.94h-13.76v-13.67h6.53c.1,2.09,.2,4.04,.32,6.39,2.1,.18,4.17,.35,6.78,.57,0,2.31,0,4.58,0,6.84,0,0,.14-.14,.14-.14Z"/>
  <path class="cls-1" d="M187.74,75.77v14h-6.38v-13.87c2.27,0,4.4,0,6.53,0,0,0-.15-.13-.15-.13Z"/>
  <path class="cls-1" d="M152.93,62.07l14.14-.14v7.01c-4.84,0-9.49,0-14.14,0,0,0,.14,.13,.14,.13v-7.14l-.13,.14Z"/>
  <path class="cls-1" d="M159.93,146.07v-7.14h7.14v7.14h-7.14Z"/>
  <path class="cls-1" d="M174.07,131.93v7.14h-7.14v-7.14h7.14Z"/>
  <path class="cls-1" d="M209.07,118.07v-7c2.58,0,4.79,0,7,0,0,0-.13-.14-.13-.14v7h-7l.13,.14Z"/>
  <path class="cls-1" d="M215.93,103.93c2.38,.05,4.76,.09,7.14,.14,0,0-.14-.13-.14-.13v7.14l.14-.14c-2.38,0-4.76,0-7.14,0,0,0,.13,.14,.13,.14-.05-2.38-.09-4.76-.14-7.14Z"/>
  <path class="cls-1" d="M167.06,83.08v-6.75h6.63v6.61c-2.27,0-4.52,0-6.77,0,0,0,.14,.14,.14,.14Z"/>
  <path class="cls-1" d="M187.93,68.93h7.14v7.14c-2.44-.1-4.88-.19-7.32-.29,0,0,.15,.13,.14,.13,0-2.33,.02-4.65,.03-6.98Z"/>
  <path class="cls-1" d="M166.93,62.07v-7.14h7.14v7.14h-7.14Z"/>
  <path class="cls-1" d="M223.41,41.17h34.31v34.58h-34.31V41.17Zm6.83,27.55h20.44v-20.35h-20.44v20.35Z"/>
  <path class="cls-1" d="M41.37,223.2h34.38v34.41H41.37v-34.41Zm27.5,7.24h-20.52v20.16h20.52v-20.16Z"/>
  <path class="cls-1" d="M41.2,75.63V41.29h34.57v34.34H41.2Zm7.04-7h20.34v-20.34h-20.34v20.34Z"/>
  <path class="cls-1" d="M118.07,173.93l-7.14,.14v-7.14c-9.47,0-18.73,0-27.99,0,0,0,.13,.14,.13,.14,0-2.38,0-4.76,0-7.14l-.14,.14h6.71v-7.14h-6.71l.14,.13c0-2.38,0-4.75,0-7.13l-.14,.13c4.71,0,9.42,0,14.14,0l-.14-.13v13.69h13.91v-13.55h7.23l-.13-.14v6.77c2.76,.25,4.81,.43,7,.62v13.74l.14-.14h-7.14v7.14l.13-.14Z"/>
  <path class="cls-1" d="M61.93,159.93c4.71,.05,9.43,.1,14.14,.14l-.13-.14v7.14h7.14s-.13-.14-.13-.14c0,2.15,0,4.29,0,6.76h-21.01v-13.76Z"/>
  <path class="cls-1" d="M47.93,160.07v-7.14h14.14v7.14h-14.14Z"/>
  <path class="cls-1" d="M69.07,188.07h-7.14v-6.75h7.14v6.75Z"/>
  <path class="cls-1" d="M117.93,117.93h7v-7c2.38,0,4.76,0,7.14,0v14.14h-14.14c0-2.38,0-4.76,0-7.14Z"/>
  <path class="cls-1" d="M76.07,132.07v-6.77c2.17-.18,4.24-.35,6.68-.55,.11-2.3,.22-4.55,.32-6.81l-.14,.14c2.38-.05,4.75-.1,7.13-.15l-.14,14.14,.14-.13c-4.71,0-9.42,0-14.14,0l.14,.13Z"/>
  <path class="cls-1" d="M89.93,132.07h13.74v13.87c-2.23,0-4.48,0-6.74,0,0,0,.14,.13,.14,.13v-6.79c-2.76-.23-4.82-.4-7-.58v-6.77l-.14,.13Z"/>
  <path class="cls-1" d="M118.07,146.07v-7h14l-.13-.14c0,2.22,0,4.44,0,7h-14l.13,.14Z"/>
  <path class="cls-1" d="M132.07,139.07v-7.01c2.59,0,4.8,0,7.01,0,0,0-.14-.13-.14-.13v7.14s.14-.14,.14-.14c-2.38,0-4.76,0-7.14,0l.13,.14Z"/>
  <path class="cls-1" d="M110.93,124.93c2.38,0,4.76,0,7.14,0v6.75h-7.14v-6.75Z"/>
  <path class="cls-1" d="M89.93,118.07v-6.75h7.14v6.75h-7.14Z"/>
  <path class="cls-1" d="M103.93,223.07c0-2.38,0-4.76,0-7.14h7v-14c2.38,.05,4.75,.1,7.13,.15l-.14-.14v6.71c2.4,.2,4.47,.38,7.15,.61v13.82h-6.74c-.18,2.19-.35,4.25-.54,6.62h-6.51c-.17-2-.35-4.05-.57-6.62h-6.78Z"/>
  <path class="cls-1" d="M132.07,250.93v7.14h-14.14c.05-4.71,.1-9.42,.15-14.13l-.14,.14h6.76c.18,2.17,.35,4.24,.57,6.85h6.8Z"/>
  <path class="cls-1" d="M132.07,222.93v14.14h-7.14v-14.14h7.14Z"/>
  <path class="cls-1" d="M96.93,222.93h7.14v6.75h-7.14v-6.75Z"/>
  <path class="cls-1" d="M118.08,243.94h-6.75v-6.63h6.61c0,2.27,0,4.52,0,6.77,0,0,.14-.14,.14-.14Z"/>
  <path class="cls-1" d="M111.07,258.07h-7.14v-6.75h7.14v6.75Z"/>
  <path class="cls-1" d="M76.07,160.07v-7.01c2.59,0,4.8,0,7.01,0,0,0-.14-.13-.14-.13,0,2.38,0,4.76,0,7.14l.14-.14h-7.14l.13,.14Z"/>
  <path class="cls-1" d="M83.07,145.93h-7c0-2.58,0-4.79,0-7,0,0-.14,.13-.14,.13h7v7l.14-.13Z"/>
  <path class="cls-1" d="M68.93,131.93c2.38,.05,4.76,.09,7.14,.14,0,0-.14-.13-.14-.13,0,2.38,0,4.76,0,7.14,0,0,.14-.13,.14-.13-2.21,0-4.42,0-7.14,0v-7.01Z"/>
  <path class="cls-1" d="M117.93,181.07c.05-2.38,.09-4.76,.14-7.14,0,0-.13,.14-.13,.14h7.14v-7.14l-.14,.14c2.38,0,4.76,0,7.13,0,0,0-.13-.14-.13-.14,.05,4.71,.09,9.43,.14,14.14h-14.14Z"/>
  <path class="cls-1" d="M118.06,202.08v-6.75h6.63v6.61c-2.27,0-4.52,0-6.77,0,0,0,.14,.14,.14,.14Z"/>
  <path class="cls-1" d="M83.08,117.94h-6.75v-6.63h6.61c0,2.27,0,4.52,0,6.77,0,0,.14-.14,.14-.14Z"/>
  <path class="cls-1" d="M202.07,55.07c-2.38,0-4.76,0-7.14,0v-6.75h7.14v6.75Z"/>
  <path class="cls-1" d="M131.93,47.93h6.73c.19-2.24,.36-4.3,.59-7h6.82v6.73c2.25,.19,4.31,.37,6.86,.58v13.83s.13-.14,.13-.14c-2.38,0-4.76,0-7.14,0,0,0,.13,.14,.13,.14v-6.91h-14.14v-7.23Z"/>
  <path class="cls-1" d="M124.93,40.93h7.14v7.14h-7.14v-7.14Z"/>
  <path class="cls-1" d="M159.92,251.06h6.75v6.63h-6.61c0-2.27,0-4.52,0-6.77,0,0-.14,.14-.14,.14Z"/>
  <path class="cls-1" d="M181.07,153.07h-7.14v-6.75h7.14v6.75Z"/>
  <path class="cls-1" d="M104.07,216.07h-7.14v-7h-7c0-2.38,0-4.76,0-7.14h14.14c0,4.71,0,9.43,0,14.14Z"/>
  <path d="M216.1,166.94h-6.78c-.2,2.34-.38,4.41-.59,6.76h-6.38c-.18-1.89-.37-3.96-.6-6.4-2.03-.18-4.11-.36-6.45-.56v-6.32h20.64c0,2.16,0,4.42,0,6.68,0,0,.15-.15,.15-.15Z"/>
  <path d="M201.95,139.09c2.37,0,4.75,0,7.12,0l-.14-.16v7.14h7.14l-.16-.14v6.73h-13.81v-13.72l-.15,.15Z"/>
  <path d="M215.93,110.93c2.38,0,4.76,0,7.14,0-.06,4.71-.11,9.42-.17,14.13l.15-.15h-13.81c-.11-2.47-.21-4.72-.31-6.98h7v-7Z"/>
  <path d="M244.07,110.93c0,2.38,0,4.76,0,7.13h-13.82c-.12-2.63-.22-4.88-.32-7.14,4.71,0,9.42,0,14.14,0Z"/>
  <path d="M215.93,139.09h6.72v6.84c-2.24,0-4.48,0-6.73,0,0,0,.16,.14,.16,.14v-7.14l-.14,.16Z"/>
  <path d="M209.07,139.09v-6.73h6.86c0,2.23,0,4.48,0,6.73,0,0,.14-.16,.14-.16h-7.14l.14,.16Z"/>
  <path d="M202.1,138.94h-7v-7l-.15,.15h7c0,2.48,0,4.74,0,7,0,0,.15-.15,.15-.15Z"/>
  <path d="M222.9,125.06h6.73v6.6h-6.57c0-2.27,0-4.51,0-6.75,0,0-.15,.15-.15,.15Z"/>
  <path d="M195.1,131.94h-6.73v-6.6h6.57c0,2.27,0,4.51,0,6.75,0,0,.15-.15,.15-.15Z"/>
  <path d="M222.93,111.07v-7.14c2.38,0,4.76,0,7.14,0,0,2.38,0,4.76,0,7.14-2.38,0-4.76,0-7.14,0Z"/>
  <path d="M216.42,216.11h6.19v6.54h-6.19v-6.54Z"/>
  <path d="M132.07,167.07c-2.38,0-4.76,0-7.13,0v-13.74c-2.19-.19-4.24-.38-7-.62v-6.77h14c0-2.56,0-4.78,0-7,2.38,0,4.76,0,7.14,0,0,4.45,0,8.91,0,13.69-2.39,.21-4.45,.4-7,.63v13.81Z"/>
  <path d="M138.93,139.07v-7.14c2.38,.06,4.75,.11,7.13,.17l-.15-.15v7.12h-6.98Z"/>
  <path d="M146.06,132.1v-6.73h6.6v6.57c-2.27,0-4.51,0-6.75,0,0,0,.15,.15,.15,.15Z"/>
  <path d="M167.1,110.94h-6.73v-6.6h6.57c0,2.27,0,4.51,0,6.75,0,0,.15-.15,.15-.15Z"/>
  <path d="M145.91,103.95v6.83c-2.46,0-4.82,0-7.19,0,0,0,.16,.14,.16,.14,.1-2.11,.2-4.22,.33-6.81h6.85l-.15-.15Z"/>
  <path d="M146.06,104.1v-6.73h6.6v6.57c-2.27,0-4.51,0-6.75,0,0,0,.15,.15,.15,.15Z"/>
  <path d="M152.94,75.9v6.73h-6.6v-6.57c2.27,0,4.51,0,6.75,0,0,0-.15-.15-.15-.15Z"/>
  <path d="M145.93,61.93c2.38,0,4.76,0,7.14,0v7.14h-7.14v-7.14Z"/>
  <path d="M230.24,68.72v-20.35h20.44v20.35h-20.44Z"/>
  <path d="M68.87,230.44v20.16h-20.52v-20.16h20.52Z"/>
  <path d="M48.24,68.63v-20.34h20.34v20.34h-20.34Z"/>
  <path d="M75.93,139.07c0-2.38,0-4.76,0-7.14,4.71,0,9.42,0,14.14,0v6.77c2.18,.18,4.24,.35,7,.58v6.79c-4.71,0-9.42,0-14.14,0v-7h-7Z"/>
  <path d="M82.93,160.07c0-2.38,0-4.76,0-7.14h6.71v7.14h-6.71Z"/>
  <path d="M75.93,159.93h7.14c0,2.38,0,4.76,0,7.14h-7.14v-7.14Z"/>
  <path d="M125.07,166.93v7.14h-7.14v-7.14h7.14Z"/>
  <path class="cls-1" d="M208.93,138.93h7.14v7.14h-7.14v-7.14Z"/>
</svg>